<svg width="20" height="20" fill="none" xmlns="http://www.w3.org/2000/svg">
    <path d="M9.998 13.125c-4.125 0-4.125-6.25 0-6.25 4.078 0 4.254 6.25 0 6.25zm0-5c-2.5 0-2.5 3.75 0 3.75s2.5-3.75 0-3.75z" fill="#000"/>
    <path d="M9.999 15.625c-3.093 0-6.055-1.643-8.125-4.509a1.902 1.902 0 0 1 0-2.232c2.07-2.866 5.032-4.509 8.125-4.509s6.055 1.643 8.125 4.509a1.902 1.902 0 0 1 0 2.232c-2.07 2.866-5.032 4.509-8.125 4.509zm-7.115-5.241c1.862 2.573 4.388 3.991 7.115 3.991 2.727 0 5.253-1.418 7.114-3.991a.654.654 0 0 0 0-.768C15.252 7.043 12.726 5.625 10 5.625c-2.727 0-5.253 1.418-7.115 3.991a.654.654 0 0 0 0 .768z" fill="#000"/>
</svg>
