<svg width="24" height="24" fill="none" xmlns="http://www.w3.org/2000/svg">
    <path d="M8.877 19.748c0 .246.073.486.21.691l.667 1.004a1.249 1.249 0 0 0 1.04.557h2.412a1.25 1.25 0 0 0 1.04-.557l.668-1.004a1.25 1.25 0 0 0 .209-.69l.002-1.499h-6.25l.002 1.498zM5.125 8.875c0 1.733.643 3.315 1.702 4.523.645.736 1.654 2.274 2.039 3.572l.004.03h6.26l.004-.03c.385-1.298 1.394-2.836 2.04-3.572a6.837 6.837 0 0 0 1.701-4.523A6.875 6.875 0 0 0 11.979 2c-3.985.012-6.854 3.241-6.854 6.875zM12 5.75a3.129 3.129 0 0 0-3.125 3.125.625.625 0 1 1-1.25 0A4.38 4.38 0 0 1 12 4.5a.625.625 0 1 1 0 1.25z" fill="gray"/>
</svg>
