<svg width="24" height="24" fill="none" xmlns="http://www.w3.org/2000/svg">
    <path fill-rule="evenodd" clip-rule="evenodd" d="M12.735 2c-.223 0-.403.165-.403.367v8.085c0 .203.18.367.403.367h8.862c.223 0 .403-.164.403-.367-.006-4.666-4.15-8.447-9.265-8.452zm4.173 17.642-5.74-7.38V3.249a.416.416 0 0 0-.416-.416c-4.82 0-8.74 4.295-8.74 9.573a9.584 9.584 0 0 0 9.573 9.573 7.111 7.111 0 0 0 5.258-1.76.416.416 0 0 0 .065-.576zm-3.472-7.61h8.171c.243 0 .44.179.44.399-.005 2.542-.925 4.92-2.972 6.656a.465.465 0 0 1-.3.107h-.03a.455.455 0 0 1-.311-.148L13.2 12.82c-.16-.16-.326-.353-.271-.559.098-.229.264-.229.507-.229z" fill="gray"/>
</svg>
